<?xml version="1.0" encoding="utf-8"?>
<!-- Generator: Adobe Illustrator 17.0.0, SVG Export Plug-In . SVG Version: 6.00 Build 0)  -->
<!DOCTYPE svg PUBLIC "-//W3C//DTD SVG 1.1//EN" "http://www.w3.org/Graphics/SVG/1.1/DTD/svg11.dtd">
<svg version="1.1" id="Layer_1" xmlns="http://www.w3.org/2000/svg" xmlns:xlink="http://www.w3.org/1999/xlink" x="0px" y="0px"
	 viewBox="0 0 539 231.594" enable-background="new 0 0 539 231.594" xml:space="preserve">
<g>
	<path fill="#231F20" d="M221.911,138.651h-6.402V91.362h6.402V138.651z"/>
	<path fill="#231F20" d="M265.965,91.362v5.379h-15.312v41.91h-6.369v-41.91h-15.345v-5.379H265.965z"/>
	<path fill="#231F20" d="M279.331,118.917v19.734h-6.369V91.362h13.365c2.991,0,5.577,0.303,7.755,0.907
		c2.178,0.605,3.977,1.48,5.396,2.624s2.469,2.524,3.151,4.142c0.682,1.617,1.022,3.427,1.022,5.428
		c0,1.673-0.264,3.234-0.792,4.687c-0.527,1.452-1.292,2.756-2.293,3.91c-1.001,1.155-2.223,2.146-3.663,2.971
		c-1.441,0.824-3.074,1.436-4.9,1.831c0.836,0.528,1.54,1.199,2.112,2.013l13.794,18.777h-5.677c-1.166,0-2.023-0.45-2.573-1.353
		l-12.276-16.896c-0.374-0.528-0.775-0.907-1.204-1.139c-0.43-0.23-1.095-0.347-1.997-0.347H279.331z M279.331,114.264h6.731
		c1.849,0,3.481-0.226,4.9-0.677c1.42-0.45,2.607-1.089,3.564-1.914s1.678-1.81,2.161-2.953c0.484-1.144,0.727-2.409,0.727-3.795
		c0-2.816-0.924-4.939-2.772-6.369c-1.848-1.43-4.62-2.146-8.315-2.146h-6.996V114.264z"/>
	<path fill="#231F20" d="M343.449,91.362v5.214h-22.736v15.708h18.414v5.017h-18.414v16.137h22.77l-0.033,5.214h-29.139V91.362
		H343.449z"/>
	<path fill="#231F20" d="M356.452,91.412c0.197,0.033,0.373,0.088,0.527,0.165s0.308,0.187,0.462,0.33
		c0.154,0.143,0.319,0.324,0.495,0.544l27.357,35.607c-0.045-0.572-0.083-1.127-0.116-1.667c-0.032-0.538-0.049-1.05-0.049-1.534
		V91.362h5.609v47.289h-3.2c-0.507,0-0.93-0.088-1.271-0.264c-0.342-0.176-0.677-0.474-1.007-0.892l-27.357-35.606
		c0.044,0.55,0.077,1.089,0.1,1.617c0.021,0.527,0.033,1.012,0.033,1.451v33.693h-5.61V91.362h3.3
		C356.012,91.362,356.254,91.378,356.452,91.412z"/>
	<path fill="#231F20" d="M434.792,91.362v5.379H419.48v41.91h-6.369v-41.91h-15.345v-5.379H434.792z"/>
</g>
<g>
	<path fill="#231F20" d="M138.903,138.652V91.363h15.081c2.904,0,5.406,0.286,7.508,0.858c2.101,0.572,3.827,1.386,5.181,2.441
		c1.353,1.057,2.348,2.349,2.986,3.878c0.638,1.529,0.957,3.25,0.957,5.164c0,1.167-0.182,2.289-0.545,3.366
		c-0.362,1.078-0.907,2.079-1.633,3.003c-0.727,0.924-1.646,1.749-2.756,2.476c-1.111,0.726-2.414,1.319-3.91,1.781
		c3.453,0.683,6.061,1.926,7.82,3.729c1.761,1.804,2.641,4.18,2.641,7.128c0,2.002-0.369,3.828-1.105,5.478
		c-0.737,1.65-1.815,3.069-3.234,4.258c-1.419,1.188-3.163,2.106-5.23,2.755c-2.068,0.649-4.422,0.974-7.062,0.974H138.903z
		 M145.272,112.549h8.448c1.803,0,3.371-0.198,4.702-0.595c1.331-0.396,2.431-0.945,3.3-1.649s1.513-1.557,1.931-2.558
		s0.627-2.096,0.627-3.284c0-2.793-0.836-4.834-2.508-6.121c-1.673-1.287-4.269-1.931-7.788-1.931h-8.712V112.549z M145.272,117.103
		v16.467h10.229c1.826,0,3.399-0.209,4.72-0.627c1.319-0.418,2.403-1.007,3.25-1.766s1.469-1.661,1.864-2.706
		c0.396-1.045,0.595-2.194,0.595-3.448c0-2.442-0.87-4.373-2.607-5.792c-1.738-1.419-4.345-2.128-7.821-2.128H145.272z"/>
</g>
<g>
	<path fill="#E6C21F" d="M152.683,162.668c-26.916,0-48.813-21.897-48.813-48.813s21.897-48.814,48.813-48.814
		s48.814,21.898,48.814,48.814S179.599,162.668,152.683,162.668z M152.683,68.041c-25.262,0-45.813,20.552-45.813,45.814
		s20.552,45.813,45.813,45.813s45.814-20.552,45.814-45.813S177.945,68.041,152.683,68.041z"/>
</g>
<g>
	<path fill="#E6C21F" d="M153.44,153.254c-21.725,0-39.399-17.674-39.399-39.399s17.674-39.399,39.399-39.399
		s39.399,17.674,39.399,39.399S175.165,153.254,153.44,153.254z M153.44,77.456c-20.071,0-36.399,16.329-36.399,36.399
		s16.329,36.399,36.399,36.399s36.399-16.329,36.399-36.399S173.511,77.456,153.44,77.456z"/>
</g>
</svg>
